<svg aria-hidden="true" style="position: absolute; width: 0; height: 0; overflow: hidden;" version="1.1" xmlns="http://www.w3.org/2000/svg" xmlns:xlink="http://www.w3.org/1999/xlink">
    <defs>
        <symbol id="icon-burger" viewBox="0 0 46 32">
            <path fill="none" stroke="#d41443" style="stroke: var(--color1, #d41443)" stroke-linejoin="miter" stroke-linecap="butt" stroke-miterlimit="4" stroke-width="2.2857" d="M0 2.286h45.714"></path>
            <path fill="none" stroke="#d41443" style="stroke: var(--color1, #d41443)" stroke-linejoin="miter" stroke-linecap="butt" stroke-miterlimit="4" stroke-width="2.2857" d="M0 16h45.714"></path>
            <path fill="none" stroke="#d41443" style="stroke: var(--color1, #d41443)" stroke-linejoin="miter" stroke-linecap="butt" stroke-miterlimit="4" stroke-width="2.2857" d="M0 29.714h45.714"></path>
        </symbol>
        <symbol id="icon-close" viewBox="0 0 32 32">
            <path fill="none" stroke="#fff" style="stroke: var(--color2, #fff)" stroke-linejoin="miter" stroke-linecap="butt" stroke-miterlimit="4" stroke-width="2" d="M2.519 2l26.963 28"></path>
            <path fill="none" stroke="#fff" style="stroke: var(--color2, #fff)" stroke-linejoin="miter" stroke-linecap="butt" stroke-miterlimit="4" stroke-width="2" d="M2 29.481l28-26.963"></path>
        </symbol>
        <symbol id="icon-dots" viewBox="0 0 139 32">
            <path d="M85.333 16c0 8.837-7.163 16-16 16s-16-7.163-16-16c0-8.837 7.163-16 16-16s16 7.163 16 16z"></path>
            <path d="M32 16c0 8.837-7.163 16-16 16s-16-7.163-16-16c0-8.837 7.163-16 16-16s16 7.163 16 16z"></path>
            <path d="M138.667 16c0 8.837-7.163 16-16 16s-16-7.163-16-16c0-8.837 7.163-16 16-16s16 7.163 16 16z"></path>
        </symbol>
        <symbol id="icon-facebook" viewBox="0 0 16 32">
            <path fill="#fff" style="fill: var(--color2, #fff)" d="M14.266 15.97h-4.176v15.39h-6.327v-15.39h-3.009v-5.409h3.009v-3.5c0-2.503 1.182-6.422 6.384-6.422l4.687 0.020v5.25h-3.401c-0.558 0-1.342 0.28-1.342 1.474v3.183h4.729l-0.553 5.403z"></path>
        </symbol>
        <symbol id="icon-github" viewBox="0 0 32 32">
            <path fill="#fff" style="fill: var(--color2, #fff)" d="M16 0.941c-8.271 0-15.059 6.788-15.059 15.059 0 7.058 4.953 13.47 11.529 15.059v-4.982c-0.652 0.143-1.251 0.147-1.915-0.049-0.89-0.263-1.613-0.856-2.15-1.76-0.342-0.577-0.949-1.203-1.581-1.157l-0.155-1.758c1.368-0.117 2.551 0.833 3.254 2.013 0.312 0.525 0.671 0.832 1.132 0.969 0.446 0.131 0.924 0.068 1.481-0.129 0.14-1.116 0.651-1.534 1.037-2.122v-0.001c-3.922-0.585-5.486-2.666-6.106-4.308-0.822-2.181-0.381-4.905 1.073-6.627 0.028-0.034 0.079-0.121 0.060-0.183-0.667-2.014 0.146-3.679 0.176-3.856 0.769 0.228 0.894-0.229 3.342 1.258l0.423 0.254c0.177 0.105 0.121 0.045 0.298 0.032 1.022-0.278 2.099-0.431 3.16-0.445 1.069 0.014 2.14 0.167 3.204 0.456l0.137 0.014c-0.012-0.002 0.037-0.009 0.12-0.058 3.057-1.852 2.947-1.247 3.767-1.513 0.030 0.177 0.831 1.87 0.172 3.858-0.089 0.274 2.65 2.782 1.132 6.809-0.62 1.643-2.184 3.724-6.106 4.309v0.001c0.503 0.766 1.107 1.174 1.104 2.755v6.219c6.577-1.589 11.529-8.001 11.529-15.059 0-8.271-6.787-15.059-15.059-15.059v0z"></path>
        </symbol>
        <symbol id="icon-home" viewBox="0 0 35 32">
            <path fill="#d31342" style="fill: var(--color3, #d31342)" d="M32.64 15.401c0.599-0.65 0.541-1.646-0.129-2.225l-14.772-12.75c-0.671-0.578-1.745-0.566-2.402 0.027l-14.822 13.403c-0.656 0.594-0.689 1.589-0.071 2.222l0.372 0.382c0.617 0.633 1.613 0.708 2.224 0.168l1.108-0.979v14.326c0 0.879 0.722 1.591 1.612 1.591h5.778c0.89 0 1.612-0.712 1.612-1.591v-10.023h7.37v10.023c-0.013 0.878 0.624 1.59 1.515 1.59h6.123c0.89 0 1.613-0.711 1.613-1.59v-14.124c0 0 0.306 0.264 0.683 0.592s1.168 0.065 1.767-0.586l0.42-0.455z"></path>
        </symbol>
        <symbol id="icon-icecherry" viewBox="0 0 32 32">
            <path fill="none" stroke="#ffa5ba" style="stroke: var(--color4, #ffa5ba)" stroke-linejoin="miter" stroke-linecap="butt" stroke-miterlimit="10" stroke-width="1.92" d="M12.672 21.12c6.336 0 11.2-4.48 11.2-9.984h-22.656c0 5.504 5.12 9.984 11.456 9.984z"></path>
            <path fill="none" stroke="#ffa5ba" style="stroke: var(--color4, #ffa5ba)" stroke-linejoin="miter" stroke-linecap="butt" stroke-miterlimit="10" stroke-width="1.92" d="M22.016 22.208l2.112-11.072h-23.040l3.84 19.968h15.36l0.384-2.112"></path>
            <path fill="none" stroke="#ffa5ba" style="stroke: var(--color4, #ffa5ba)" stroke-linejoin="round" stroke-linecap="round" stroke-miterlimit="10" stroke-width="1.92" d="M30.912 26.048c0 2.816-2.624 4.608-5.888 4.608s-5.632-1.856-5.888-4.608c-0.128-1.536 0.512-3.584 2.048-3.904 2.304-0.384 4.096 1.408 4.096 1.408s1.728-1.792 3.264-1.6c2.368 0.256 2.368 2.432 2.368 4.096z"></path>
            <path fill="none" stroke="#ffa5ba" style="stroke: var(--color4, #ffa5ba)" stroke-linejoin="round" stroke-linecap="round" stroke-miterlimit="10" stroke-width="1.92" d="M26.944 17.984c0 0-1.792 1.344-1.92 2.752s0.064 2.432 0.064 2.432"></path>
            <path fill="none" stroke="#ffa5ba" style="stroke: var(--color4, #ffa5ba)" stroke-linejoin="round" stroke-linecap="butt" stroke-miterlimit="10" stroke-width="1.92" d="M12.544 4.928c0.32-0.256 0.704-0.448 1.088-0.448 1.536-0.064 3.968 1.536 3.968 1.536s1.92-1.216 3.392-0.896c1.664 0.32 2.048 2.688 1.856 4.352-0.064 0.64-0.256 1.216-0.576 1.728"></path>
            <path fill="none" stroke="#ffa5ba" style="stroke: var(--color4, #ffa5ba)" stroke-linejoin="round" stroke-linecap="round" stroke-miterlimit="10" stroke-width="1.92" d="M19.776 0.896c0 0-1.92 1.152-2.176 2.56s-0.192 2.432-0.192 2.432"></path>
            <path fill="none" stroke="#ffa5ba" style="stroke: var(--color4, #ffa5ba)" stroke-linejoin="round" stroke-linecap="butt" stroke-miterlimit="10" stroke-width="1.92" d="M2.624 11.072c-0.64-1.152-0.896-2.56-0.064-3.456 1.088-1.088 3.968-1.472 3.968-1.472s0.64-2.176 1.92-2.944c1.472-0.896 3.328 0.576 4.288 1.984 1.344 1.856 0.896 4.16-0.768 5.952"></path>
            <path fill="none" stroke="#ffa5ba" style="stroke: var(--color4, #ffa5ba)" stroke-linejoin="round" stroke-linecap="round" stroke-miterlimit="10" stroke-width="1.92" d="M4.8 0.896c0 0-0.704 2.112 0.064 3.328s1.472 1.984 1.472 1.984"></path>
        </symbol>
        <symbol id="icon-icecream" viewBox="0 0 21 32">
            <path fill="none" stroke="#ffa5bb" style="stroke: var(--color5, #ffa5bb)" stroke-linejoin="miter" stroke-linecap="butt" stroke-miterlimit="10" stroke-width="1.28" d="M17.472 31.424h-13.568l-2.56-17.408h18.688z"></path>
            <path fill="none" stroke="#ffa5bb" style="stroke: var(--color5, #ffa5bb)" stroke-linejoin="miter" stroke-linecap="butt" stroke-miterlimit="10" stroke-width="1.28" d="M19.776 14.016c0 4.864-4.096 8.832-9.088 8.832s-9.088-3.904-9.088-8.832"></path>
            <path fill="none" stroke="#ffa5bb" style="stroke: var(--color5, #ffa5bb)" stroke-linejoin="round" stroke-linecap="butt" stroke-miterlimit="10" stroke-width="1.28" d="M3.008 7.104c1.536 1.792 3.2-0.96 4.544-0.384 1.472 0.64 0.192 4.48 3.008 4.48 2.688 0 1.344-3.712 3.392-4.544 2.176-0.896 3.072 2.048 4.416 0.768 1.664-1.728-1.088-2.496-1.024-3.712s0.832-2.624 0.832-2.624h-15.168c0 0 0.832 1.664 0.768 2.752 0 0.96-1.6 2.24-0.768 3.264z"></path>
        </symbol>
        <symbol id="icon-iceheart" viewBox="0 0 28 32">
            <path fill="none" stroke="#ffa5bb" style="stroke: var(--color5, #ffa5bb)" stroke-linejoin="miter" stroke-linecap="butt" stroke-miterlimit="10" stroke-width="1.92" d="M12.224 22.208h3.712v8.832h-3.712v-8.832z"></path>
            <path fill="none" stroke="#ffa5bb" style="stroke: var(--color5, #ffa5bb)" stroke-linejoin="miter" stroke-linecap="butt" stroke-miterlimit="10" stroke-width="1.92" d="M26.88 10.048c-0.832 6.656-10.048 10.944-12.352 11.904-0.32 0.128-0.704 0.128-1.024 0-2.176-0.96-11.136-5.312-12.288-11.904-0.704-3.904 1.152-8 4.48-8.896 3.264-0.896 6.208 1.216 7.616 2.432 0.448 0.448 1.216 0.448 1.664 0 1.408-1.152 4.224-3.136 7.104-2.624 4.096 0.768 5.44 4.032 4.8 9.088z"></path>
            <path fill="none" stroke="#ffa5bb" style="stroke: var(--color5, #ffa5bb)" stroke-linejoin="miter" stroke-linecap="butt" stroke-miterlimit="10" stroke-width="1.92" d="M2.88 13.952c2.752-0.128 0.192-5.568 3.456-5.568 3.328-0.064 0.768 5.824 3.904 5.824 3.712 0 0.256-6.016 3.84-6.016s0.64 5.952 4.224 5.952c3.584 0 0.256-6.016 3.648-6.016s1.024 5.568 3.648 5.568"></path>
        </symbol>
        <symbol id="icon-logo" viewBox="0 0 32 32">
            <path fill="#d41442" style="fill: var(--color6, #d41442)" d="M32 16c0 8.837-7.163 16-16 16s-16-7.163-16-16c0-8.837 7.163-16 16-16s16 7.163 16 16z"></path>
            <path fill="none" stroke="#fff" style="stroke: var(--color2, #fff)" stroke-linejoin="miter" stroke-linecap="butt" stroke-miterlimit="10" stroke-width="1.28" d="M20.928 20.032h4.48c0.576 0 1.088-0.512 1.088-1.088v-1.472c0-0.576-0.512-1.088-1.088-1.088h-18.752c-0.576 0-1.088 0.512-1.088 1.088v1.472c0 0.576 0.512 1.088 1.088 1.088h10.432c0 0 0 2.688 0 3.328s0.704 1.024 1.92 1.024 1.92-0.32 1.92-1.024 0-3.328 0-3.328z"></path>
            <path fill="none" stroke="#fff" style="stroke: var(--color2, #fff)" stroke-linejoin="miter" stroke-linecap="butt" stroke-miterlimit="10" stroke-width="1.92" d="M7.616 20.032v4.352c0 2.112 1.664 3.776 3.776 3.776h9.216c2.112 0 3.776-1.664 3.776-3.776v-4.352"></path>
            <path fill="none" stroke="#fff" style="stroke: var(--color2, #fff)" stroke-linejoin="miter" stroke-linecap="butt" stroke-miterlimit="10" stroke-width="1.92" d="M24.384 16.384v-2.56c0-4.416-3.584-8-8-8h-0.832c-4.416 0-8 3.584-8 8v2.56"></path>
            <path fill="none" stroke="#fff" style="stroke: var(--color2, #fff)" stroke-linejoin="miter" stroke-linecap="butt" stroke-miterlimit="10" stroke-width="1.92" d="M11.584 32v-3.776h9.088v3.776"></path>
            <path fill="none" stroke="#fff" style="stroke: var(--color2, #fff)" stroke-linejoin="round" stroke-linecap="round" stroke-miterlimit="10" stroke-width="1.92" d="M9.216 8.96c0 1.92 3.136 3.968 6.784 3.968s6.72-1.664 6.72-3.584"></path>
        </symbol>
        <symbol id="icon-next" viewBox="0 0 26 32">
            <path fill="none" stroke="#d41443" style="stroke: var(--color1, #d41443)" stroke-linejoin="round" stroke-linecap="round" stroke-miterlimit="4" stroke-width="6.4" d="M3.542 3.2l16.825 12.8-16.825 12.8"></path>
        </symbol>
        <symbol id="icon-quotes" viewBox="0 0 43 32">
            <path fill="#e1e1e1" style="fill: var(--color7, #e1e1e1)" d="M32.014 0c1.929 0 3.75 0.52 5.464 1.561s3.107 2.537 4.179 4.488c1.029 1.951 1.543 4.249 1.543 6.894s-0.643 5.225-1.929 7.74c-0.429 0.911-1.2 2.081-2.314 3.512-1.157 1.431-2.229 2.667-3.214 3.707l-4.050 4.098-2.893-4.813c2.014-1.257 3.793-2.818 5.336-4.683 1.543-1.821 2.314-3.491 2.314-5.008 0-0.78-0.171-1.409-0.514-1.886-1.5 1.084-3.171 1.626-5.014 1.626-1.329 0-2.593-0.412-3.793-1.236-1.243-0.78-2.229-1.821-2.957-3.122-0.771-1.258-1.157-2.558-1.157-3.902 0-1.518 0.45-2.97 1.35-4.358 0.857-1.388 1.993-2.515 3.407-3.382 1.371-0.824 2.786-1.236 4.243-1.236zM8.936 0c1.929 0 3.75 0.52 5.464 1.561s3.107 2.537 4.179 4.488c1.029 1.951 1.543 4.249 1.543 6.894 0 1.864-0.236 3.534-0.707 5.008-0.471 1.518-1.286 3.1-2.443 4.748-1.114 1.561-2.164 2.862-3.15 3.902-0.986 1.084-2.7 2.884-5.143 5.398l-2.893-4.813c2.014-1.257 3.793-2.818 5.336-4.683 1.543-1.821 2.314-3.491 2.314-5.008 0-0.78-0.171-1.409-0.514-1.886-1.5 1.084-3.171 1.626-5.014 1.626-1.329 0-2.593-0.412-3.793-1.236-1.243-0.78-2.229-1.821-2.957-3.122-0.771-1.258-1.157-2.558-1.157-3.902 0-1.518 0.429-2.97 1.286-4.358s1.993-2.515 3.407-3.382c1.371-0.824 2.786-1.236 4.243-1.236z"></path>
        </symbol>
        <symbol id="icon-rightarrow" viewBox="0 0 32 32">
            <path fill="none" stroke="#d7224d" style="stroke: var(--color8, #d7224d)" stroke-linejoin="miter" stroke-linecap="butt" stroke-miterlimit="10" stroke-width="1.6" d="M16.16 19.2l3.92-3.2-3.92-3.2"></path>
            <path fill="none" stroke="#d7224d" style="stroke: var(--color8, #d7224d)" stroke-linejoin="miter" stroke-linecap="butt" stroke-miterlimit="10" stroke-width="1.6" d="M12.080 16h8"></path>
        </symbol>
        <symbol id="icon-telegram" viewBox="0 0 40 32">
            <path fill="#fff" style="fill: var(--color2, #fff)" d="M16.205 20.751l-0.635 8.339c0.909 0 1.302-0.364 1.774-0.802l4.261-3.801 8.829 6.035c1.619 0.842 2.76 0.399 3.197-1.39l5.797-25.346c0.514-2.234-0.866-3.108-2.443-2.56l-34.065 12.172c-2.325 0.842-2.29 2.052-0.395 2.6l8.709 2.528 20.229-11.814c0.952-0.588 1.818-0.263 1.106 0.326l-16.364 13.713z"></path>
        </symbol>
        <symbol id="icon-phone-black-18dp" viewBox="0 0 32 32">
            <path d="M24.882 19.774l-3.268-0.373c-0.090-0.011-0.194-0.018-0.3-0.018-0.707 0-1.347 0.287-1.81 0.75l-2.368 2.368c-3.669-1.894-6.585-4.81-8.427-8.372l-0.051-0.108 2.382-2.377c0.463-0.463 0.75-1.103 0.75-1.81 0-0.106-0.006-0.21-0.019-0.312l0.001 0.012-0.373-3.243c-0.155-1.287-1.24-2.276-2.557-2.276-0.001 0-0.002 0-0.003 0h-2.226c-1.454 0-2.663 1.209-2.574 2.661 0.683 10.987 9.47 19.762 20.444 20.444 1.452 0.089 2.663-1.12 2.663-2.574v-2.226c0-0.004 0-0.008 0-0.012 0-1.308-0.985-2.386-2.253-2.532l-0.012-0.001z"></path>
        </symbol>
        <symbol id="icon-person-black-18dp" viewBox="0 0 32 32">
            <path d="M16 16c2.946 0 5.333-2.388 5.333-5.333s-2.388-5.333-5.333-5.333v0c-2.946 0-5.333 2.388-5.333 5.333s2.388 5.333 5.333 5.333v0zM16 18.667c-3.561 0-10.667 1.787-10.667 5.333v1.333c0 0.732 0.599 1.333 1.333 1.333h18.667c0.732 0 1.333-0.601 1.333-1.333v-1.333c0-3.547-7.108-5.333-10.667-5.333z"></path>
        </symbol>
    </defs>
</svg>