<?xml version="1.0" encoding="utf-8"?>
<!-- Generator: Adobe Illustrator 22.1.0, SVG Export Plug-In . SVG Version: 6.00 Build 0)  -->
<svg version="1.1" id="Layer_1" xmlns="http://www.w3.org/2000/svg" xmlns:xlink="http://www.w3.org/1999/xlink" x="0px" y="0px"
	 viewBox="0 0 50 50" style="enable-background:new 0 0 50 50;" xml:space="preserve">
<style type="text/css">
	.st0{fill:none;stroke:#FFA5BA;stroke-width:3;stroke-miterlimit:10;}
	.st1{fill:none;stroke:#FFA5BA;stroke-width:3;stroke-linecap:round;stroke-linejoin:round;stroke-miterlimit:10;}
	.st2{enable-background:new    ;}
	.st3{fill:none;stroke:#FFA5BA;stroke-width:3;stroke-linejoin:round;stroke-miterlimit:10;}
</style>
<g>
	<path class="st0" d="M19.8,33c9.9,0,17.5-7,17.5-15.6H1.9C1.9,26,9.9,33,19.8,33z"/>
	<polyline class="st0" points="34.4,34.7 37.7,17.4 1.7,17.4 7.7,48.6 31.7,48.6 32.3,45.3 	"/>
	<path class="st0" d="M32.3,45.3"/>
	<path class="st1" d="M48.3,40.7c0,4.4-4.1,7.2-9.2,7.2s-8.8-2.9-9.2-7.2c-0.2-2.4,0.8-5.6,3.2-6.1c3.6-0.6,6.4,2.2,6.4,2.2
		s2.7-2.8,5.1-2.5C48.3,34.7,48.3,38.1,48.3,40.7z"/>
	<path class="st1" d="M42.1,28.1c0,0-2.8,2.1-3,4.3s0.1,3.8,0.1,3.8"/>
	<g class="st2">
		<path class="st3" d="M19.6,7.7C20.1,7.3,20.7,7,21.3,7c2.4-0.1,6.2,2.4,6.2,2.4s3-1.9,5.3-1.4c2.6,0.5,3.2,4.2,2.9,6.8
			c-0.1,1-0.4,1.9-0.9,2.7"/>
		<path class="st0" d="M19.6,7.7"/>
		<path class="st0" d="M18.7,17.2"/>
		<path class="st1" d="M30.9,1.4c0,0-3,1.8-3.4,4s-0.3,3.8-0.3,3.8"/>
	</g>
	<g class="st2">
		<path class="st3" d="M4.1,17.3c-1-1.8-1.4-4-0.1-5.4c1.7-1.7,6.2-2.3,6.2-2.3s1-3.4,3-4.6c2.3-1.4,5.2,0.9,6.7,3.1
			c2.1,2.9,1.4,6.5-1.2,9.3"/>
		<path class="st0" d="M4.3,17.9"/>
		<path class="st0" d="M18.7,17.4"/>
		<path class="st1" d="M7.5,1.4c0,0-1.1,3.3,0.1,5.2s2.3,3.1,2.3,3.1"/>
	</g>
</g>
</svg>
