<?xml version="1.0" encoding="utf-8"?>
<!-- Generator: Adobe Illustrator 22.1.0, SVG Export Plug-In . SVG Version: 6.00 Build 0)  -->
<svg version="1.1" id="Layer_1" xmlns="http://www.w3.org/2000/svg" xmlns:xlink="http://www.w3.org/1999/xlink" x="0px" y="0px"
	 viewBox="0 0 44 50" style="enable-background:new 0 0 44 50;" xml:space="preserve">
<style type="text/css">
	.st0{fill:none;stroke:#FFA5BB;stroke-width:3;stroke-miterlimit:10;}
</style>
<g>
	<rect x="19.1" y="34.7" class="st0" width="5.8" height="13.8"/>
	<path class="st0" d="M42,15.7c-1.3,10.4-15.7,17.1-19.3,18.6c-0.5,0.2-1.1,0.2-1.6,0C17.7,32.8,3.7,26,1.9,15.7
		C0.8,9.6,3.7,3.2,8.9,1.8c5.1-1.4,9.7,1.9,11.9,3.8c0.7,0.7,1.9,0.7,2.6,0c2.2-1.8,6.6-4.9,11.1-4.1C40.9,2.7,43,7.8,42,15.7z"/>
	<path class="st0" d="M4.5,21.8c4.3-0.2,0.3-8.7,5.4-8.7c5.2-0.1,1.2,9.1,6.1,9.1c5.8,0,0.4-9.4,6-9.4s1,9.3,6.6,9.3
		c5.6,0,0.4-9.4,5.7-9.4s1.6,8.7,5.7,8.7"/>
</g>
</svg>
