<?xml version="1.0" encoding="utf-8"?>
<!-- Generator: Adobe Illustrator 22.1.0, SVG Export Plug-In . SVG Version: 6.00 Build 0)  -->
<svg version="1.1" id="Layer_1" xmlns="http://www.w3.org/2000/svg" xmlns:xlink="http://www.w3.org/1999/xlink" x="0px" y="0px"
	 viewBox="0 0 50 50" style="enable-background:new 0 0 50 50;" xml:space="preserve">
<style type="text/css">
	.st0{fill:#D41442;}
	.st1{fill:none;stroke:#FFFFFF;stroke-width:2;stroke-miterlimit:10;}
	.st2{fill:none;stroke:#FFFFFF;stroke-width:3;stroke-miterlimit:10;}
	.st3{fill:none;stroke:#FFFFFF;stroke-width:3;stroke-linecap:round;stroke-linejoin:round;stroke-miterlimit:10;}
</style>
<circle class="st0" cx="25" cy="25" r="25"/>
<g>
	<path class="st1" d="M32.7,31.3h7c0.9,0,1.7-0.8,1.7-1.7v-2.3c0-0.9-0.8-1.7-1.7-1.7H10.4c-0.9,0-1.7,0.8-1.7,1.7v2.3
		c0,0.9,0.8,1.7,1.7,1.7h15.9h0.4c0,0,0,4.2,0,5.2s1.1,1.6,3,1.6s3-0.5,3-1.6S32.7,31.3,32.7,31.3z"/>
	<path class="st2" d="M11.9,31.3v6.8c0,3.3,2.6,5.9,5.9,5.9h14.4c3.3,0,5.9-2.6,5.9-5.9v-6.8"/>
	<path class="st2" d="M38.1,25.6v-4c0-6.9-5.6-12.5-12.5-12.5h-1.3c-6.9,0-12.5,5.6-12.5,12.5v4"/>
	<polyline class="st2" points="18.1,50 18.1,44.1 32.3,44.1 32.3,50 	"/>
	<path class="st2" d="M18.1,50"/>
	<path class="st2" d="M14.9,13.5"/>
	<path class="st2" d="M35.1,13.5"/>
	<path class="st3" d="M14.4,14c0,3,4.9,6.2,10.6,6.2s10.5-2.6,10.5-5.6"/>
</g>
</svg>
